<?xml version="1.0" encoding="UTF-8"?>
<svg version="1.1" xmlns="http://www.w3.org/2000/svg" width="800" height="169">
<path d="M0 0 C0.72075714 -0.00295074 1.44151428 -0.00590149 2.18411255 -0.00894165 C13.20069704 -0.01923107 23.2473809 0.84151247 33.75 4.3125 C34.58015625 4.52777344 35.4103125 4.74304688 36.265625 4.96484375 C48.83195276 8.42284402 62.52010727 17.39356667 69.6875 28.34375 C74.04265503 36.41359608 74.75 41.84451619 74.75 51.3125 C65.51 51.3125 56.27 51.3125 46.75 51.3125 C45.76 48.6725 44.77 46.0325 43.75 43.3125 C40.45426377 38.52338329 37.01239492 35.91527367 31.75 33.625 C31.08701904 33.33101318 30.42403809 33.03702637 29.7409668 32.73413086 C13.78875104 25.89964693 -5.70922491 24.40955 -22.25 30.3125 C-31.48919986 34.09617232 -39.24578327 37.89440062 -43.625 47.25 C-43.934375 48.2709375 -43.934375 48.2709375 -44.25 49.3125 C-43.445625 49.56 -42.64125 49.8075 -41.8125 50.0625 C-34.250493 52.71583579 -27.17522399 56.32943233 -20.03125 59.9375 C-16.82127192 61.52445545 -13.54398148 62.90950789 -10.25 64.3125 C-7.70980135 65.5660508 -5.18373252 66.84603294 -2.65625 68.125 C-0.71660772 69.08222606 1.26190525 69.96045939 3.25 70.8125 C6.18053851 72.06844508 8.97639862 73.42524922 11.8125 74.875 C14.45308143 76.2151149 16.86190588 77.34821464 19.6875 78.25 C23.73077788 79.65276988 27.26477221 81.74627713 30.96875 83.875 C33.8443175 85.36124837 36.6792506 86.30212439 39.75 87.3125 C41.74611195 88.25664254 43.72554136 89.23679403 45.6875 90.25 C49.98752037 92.43967827 54.30990529 94.42134855 58.75 96.3125 C61.21947527 97.53114985 63.67496802 98.77399675 66.125 100.03125 C69.28991664 101.57603074 72.50485091 102.94444695 75.75 104.3125 C75.86690073 108.81227884 75.93748837 113.31166287 76 117.8125 C76.03351563 119.0809375 76.06703125 120.349375 76.1015625 121.65625 C76.17907523 129.09747201 75.78974751 134.00782053 71.75 140.3125 C71.36191162 140.93302246 70.97382324 141.55354492 70.57397461 142.19287109 C61.29669072 156.7235567 44.05457131 163.85856445 27.953125 167.61499023 C8.85411294 171.47491423 -11.60148031 171.12138368 -30.25 165.3125 C-31.78720703 164.84457031 -31.78720703 164.84457031 -33.35546875 164.3671875 C-40.30149074 162.03551862 -46.77023304 158.70504815 -53.25 155.3125 C-53.25 154.6525 -53.25 153.9925 -53.25 153.3125 C-54.0853125 152.94125 -54.0853125 152.94125 -54.9375 152.5625 C-60.11588819 149.76337125 -63.27400011 146.38272204 -66.25 141.3125 C-66.25 140.6525 -66.25 139.9925 -66.25 139.3125 C-66.91 139.3125 -67.57 139.3125 -68.25 139.3125 C-72.25828968 132.16728797 -72.25 126.51411303 -72.25 118.3125 C-63.01 118.3125 -53.77 118.3125 -44.25 118.3125 C-42.93 121.2825 -41.61 124.2525 -40.25 127.3125 C-33.38659831 136.53519602 -20.19025779 139.73984506 -9.4296875 141.87109375 C8.0502466 144.29766937 24.73102527 140.8683044 40.1875 132.4375 C43.45324778 129.72931891 45.43069919 126.85966595 47.75 123.3125 C45.49326729 120.79008359 43.38431348 119.50575492 40.29296875 118.15625 C39.42736328 117.77339844 38.56175781 117.39054687 37.66992188 116.99609375 C36.76822266 116.60550781 35.86652344 116.21492188 34.9375 115.8125 C33.15966673 115.03236462 31.38231092 114.2511401 29.60546875 113.46875 C28.76516113 113.09959473 27.92485352 112.73043945 27.05908203 112.35009766 C24.24658787 111.08628922 21.49828821 109.70965108 18.75 108.3125 C17.07869952 107.60541134 15.40730566 106.89853557 13.734375 106.1953125 C11.36604149 105.14168381 9.06278598 103.98290987 6.75 102.8125 C3.9355824 101.38833688 1.15181741 100.05613603 -1.75 98.8125 C-5.53415111 97.19072095 -9.17172532 95.35813297 -12.84375 93.5 C-14.78339228 92.54277394 -16.76190525 91.66454061 -18.75 90.8125 C-22.53415111 89.19072095 -26.17172532 87.35813297 -29.84375 85.5 C-31.78339228 84.54277394 -33.76190525 83.66454061 -35.75 82.8125 C-39.50394259 81.20366746 -43.10094244 79.38032411 -46.72265625 77.49609375 C-49.27376975 76.23996801 -49.27376975 76.23996801 -52.1796875 75.34765625 C-55.40826646 74.25914044 -58.28665083 72.87422861 -61.3125 71.3125 C-64.91306432 69.45892764 -68.49129866 67.81330054 -72.25 66.3125 C-73.94343108 64.61906892 -73.41440723 62.50803552 -73.44116211 60.24682617 C-73.41269646 43.75382866 -71.78312975 31.94531801 -59.9375 19.625 C-56.55861723 16.3125 -56.55861723 16.3125 -54.25 16.3125 C-54.25 15.6525 -54.25 14.9925 -54.25 14.3125 C-37.04282022 4.53856884 -19.78348946 0.07052689 0 0 Z " fill="#E50000" transform="translate(724.25,-0.3125)"/>
<path d="M0 0 C14.85 0 29.7 0 45 0 C50.62663711 12.37860165 50.62663711 12.37860165 52.60546875 17.1484375 C53.03150391 18.17324219 53.45753906 19.19804687 53.89648438 20.25390625 C54.32251953 21.28386719 54.74855469 22.31382813 55.1875 23.375 C55.62513672 24.42816406 56.06277344 25.48132813 56.51367188 26.56640625 C59.71945876 34.28966075 59.71945876 34.28966075 61.02514648 37.59570312 C61.884288 39.71461763 62.80609602 41.76451539 63.8046875 43.8203125 C64.13887695 44.51519775 64.47306641 45.21008301 64.81738281 45.92602539 C65.16639648 46.65168701 65.51541016 47.37734863 65.875 48.125 C68.61932926 53.87886163 71.06838307 59.60653191 73.1328125 65.64453125 C74.23232509 68.63104519 75.66537932 71.37318517 77.140625 74.1875 C78 76 78 76 78.875 79.25 C79.91856902 82.72856339 81.2172334 85.5339328 82.875 88.75 C85.3582103 93.57176757 87.3024419 98.37372106 89.07421875 103.4921875 C90.14368498 106.38922261 91.49491961 109.03340029 92.9296875 111.76171875 C94.81795271 115.71053615 96.25319211 119.84070628 97.75390625 123.94921875 C98.93901505 126.85069201 100.37885331 129.32753748 102 132 C102.7734375 134.0703125 102.7734375 134.0703125 103.375 136.125 C104.82655506 140.71649783 106.76745949 144.98455021 108.79296875 149.34765625 C113 158.59223301 113 158.59223301 113 163 C103.1 163 93.2 163 83 163 C81.35 158.71 79.7 154.42 78 150 C76.14443882 146.28797659 76.14443882 146.28797659 74.25390625 142.59375 C71.81276064 137.54415286 69.96491586 132.24839367 68 127 C65.50734591 120.58508138 62.84559092 114.26635447 60 108 C52.77561368 110.2228881 46.14809774 113.31653008 39.5625 117 C35.23186657 119.41061833 30.89187272 121.31001069 26.265625 123.0703125 C24.21075521 123.91351769 22.39838638 124.85564559 20.5 126 C17.03265265 128.08202867 13.40811537 129.48779703 9.64453125 130.94921875 C3.61869896 133.34353025 -2.22460873 136.16271726 -8.08984375 138.921875 C-8.81131592 139.26089844 -9.53278809 139.59992188 -10.27612305 139.94921875 C-11.75806863 140.64943763 -13.2374208 141.35517191 -14.71411133 142.06640625 C-17.90571276 143.59579731 -21.02297083 145.00822676 -24.359375 146.203125 C-28.79366312 147.80905637 -31.27928034 148.78479555 -33.7421875 152.9375 C-34.99070747 155.9283049 -36.02436638 158.91207224 -37 162 C-38 163 -38 163 -40.77563477 163.11352539 C-41.98533936 163.10828857 -43.19504395 163.10305176 -44.44140625 163.09765625 C-45.74658203 163.09443359 -47.05175781 163.09121094 -48.39648438 163.08789062 C-49.7851569 163.07953401 -51.17382877 163.07106905 -52.5625 163.0625 C-53.95507656 163.05748666 -55.34765481 163.05292347 -56.74023438 163.04882812 C-60.1601987 163.03699434 -63.58007844 163.0205088 -67 163 C-66.34252884 158.7325354 -65.40399869 155.15723535 -63.6875 151.1875 C-63.23890625 150.14207031 -62.7903125 149.09664062 -62.328125 148.01953125 C-60.88730156 144.74377678 -59.43190854 141.47500937 -57.96484375 138.2109375 C-56.56166569 134.99555782 -55.28888664 131.73124431 -54 128.46875 C-52.74502958 125.37054178 -51.37535097 122.33134376 -50 119.28515625 C-48.93769077 116.85761368 -47.96455559 114.40540592 -47 111.9375 C-45.76673024 108.80091629 -44.43259202 105.80076913 -42.875 102.8125 C-41.61728548 100.37930614 -40.84827539 98.43645146 -40.125 95.75 C-38.75112285 91.17040951 -36.65737812 87.18816187 -34.4375 82.96484375 C-33.0091618 80.01889621 -32.02082406 77.10668111 -31 74 C-30.06914441 71.90424514 -29.10952934 69.82108245 -28.125 67.75 C-25.09567669 61.26592784 -22.38661631 54.72531072 -19.890625 48.01953125 C-17.37759681 41.32084246 -14.59293186 34.84489103 -11.52294922 28.3894043 C-9.47840862 24.0765788 -7.62696707 19.73138036 -5.90625 15.28125 C-4.65801948 12.13915248 -3.25254361 9.07521369 -1.83203125 6.0078125 C-0.82478037 3.71658063 -0.82478037 3.71658063 0 0 Z M22 19 C21.52820313 20.14275391 21.52820313 20.14275391 21.046875 21.30859375 C19.0303446 26.17377703 17.00754715 31.02481225 14.8125 35.8125 C13.6626285 38.35767013 12.84419983 40.58981493 12.125 43.3125 C10.73817696 47.85819773 8.64442911 51.83647362 6.4375 56.03515625 C5.0091618 58.98110379 4.02082406 61.89331889 3 65 C2.06914441 67.09575486 1.10952934 69.17891755 0.125 71.25 C-2.07016396 75.94329244 -4.11926293 80.64765654 -6.00390625 85.47265625 C-7.13082693 88.33194126 -8.31205583 91.16554354 -9.5 94 C-11.09805899 97.82744994 -12.69011742 101.65681103 -14.25 105.5 C-14.56453125 106.2734375 -14.8790625 107.046875 -15.203125 107.84375 C-15.95591758 109.88071814 -16.51911943 111.88412551 -17 114 C-16.24976563 113.61328125 -15.49953125 113.2265625 -14.7265625 112.828125 C-8.97787591 109.90310059 -3.25441194 107.24383086 2.765625 104.93359375 C4.82956331 104.07121393 6.65436671 103.09725991 8.5625 101.9375 C11.30990795 100.38896097 13.42235272 99.47022231 16.375 98.5625 C20.50161428 97.27773346 23.9605076 95.42300862 27.68359375 93.25390625 C30.07418237 91.95984394 32.46163287 90.96905206 35 90 C39.94158354 88.11011538 44.4480704 85.68277976 49 83 C48.43238004 78.43168514 47.19718735 74.88130665 45.1875 70.75 C43.28843381 66.76604015 41.4713085 62.80228724 39.875 58.6875 C38.70357771 55.67388248 37.43274927 52.80386465 35.9375 49.9375 C34.57412474 47.28970943 33.51941331 44.71515453 32.625 41.875 C30.14831656 34.03444968 26.76885911 26.30329159 23 19 C22.67 19 22.34 19 22 19 Z " fill="#E50000" transform="translate(232,3)"/>
<path d="M0 0 C1.91091919 -0.36076355 1.91091919 -0.36076355 4.26611328 -0.34057617 C5.14687531 -0.34034958 6.02763733 -0.34012299 6.93508911 -0.33988953 C7.88721283 -0.32440567 8.83933655 -0.30892181 9.8203125 -0.29296875 C10.79410858 -0.28872391 11.76790466 -0.28447906 12.77120972 -0.28010559 C15.88941805 -0.26327786 19.00698617 -0.22561811 22.125 -0.1875 C24.23566777 -0.17245846 26.34634564 -0.15876914 28.45703125 -0.14648438 C33.63824023 -0.11336109 38.81907439 -0.06312151 44 0 C44.64371993 1.27249319 45.28572186 2.54585557 45.92700195 3.81958008 C46.46355156 4.88309441 46.46355156 4.88309441 47.01094055 5.96809387 C48.23795138 8.48884309 49.22875286 11.05370039 50.1875 13.6875 C53.49144412 22.46392121 57.27074404 31.03375033 60.98681641 39.64160156 C62.63472382 43.47745351 64.23060919 47.33439035 65.828125 51.19140625 C68.17385002 56.81332721 70.59302915 62.40409824 73 68 C75.91459493 74.77606334 78.8220344 81.55187884 81.625 88.375 C83.00814817 91.72204125 84.45260696 94.97574518 86.125 98.1875 C87.51341299 100.87029005 88.53680277 103.4917625 89.4375 106.375 C90.49572685 109.73372 91.81532822 112.74935194 93.4375 115.875 C95.72108862 120.27808703 97.40388172 124.73643191 99.03515625 129.4140625 C99.89457455 131.71744271 100.85981836 133.82611283 102 136 C103.6017736 139.05396523 104.80181197 142.11844879 105.9375 145.375 C107.6069662 150.14395324 109.67825425 154.54490634 112.046875 159.00390625 C113 161 113 161 113 163 C103.1 163 93.2 163 83 163 C78.94744632 155.13327814 75.2596821 147.44161292 72.171875 139.140625 C69.21766346 131.22333808 65.82771883 123.49417436 62.3125 115.8125 C61.86608154 114.8217749 61.86608154 114.8217749 61.41064453 113.81103516 C59.93211713 110.26065418 59.93211713 110.26065418 57 108 C55.36318422 108.92070888 53.73092367 109.85062752 52.125 110.82421875 C49.80625337 112.10720172 47.47424649 113.05329898 45 114 C42.01009327 115.15273513 39.24284819 116.34394071 36.5 118 C33.95302178 119.53739003 31.41922675 120.67104619 28.640625 121.73046875 C22.05497193 124.32608967 15.66089661 127.31687298 9.25 130.3125 C7.99626844 130.8957776 6.74252488 131.4790294 5.48876953 132.06225586 C-1.81302294 135.46681537 -9.04209652 138.97980681 -16.21875 142.640625 C-19.71450827 144.34922595 -23.27480653 145.80329734 -26.9140625 147.17578125 C-35.89516575 150.72449433 -33.52661809 151.14100586 -39 163 C-48.9 163 -58.8 163 -69 163 C-66.77227723 155.2029703 -66.77227723 155.2029703 -65.125 152.1875 C-63.14538859 148.38957884 -61.56363246 144.50708555 -60.0078125 140.51953125 C-58.74683511 137.36708777 -57.35303253 134.2850787 -55.9296875 131.203125 C-54.92721567 128.91403664 -54.92721567 128.91403664 -54.0625 126.12109375 C-52.95979987 122.88191213 -51.60393959 119.89681703 -50.125 116.8125 C-47.76180516 111.77637119 -45.76454855 106.73116775 -43.9296875 101.484375 C-42.82534533 98.53327576 -41.45296855 95.80466159 -39.99609375 93.015625 C-38.4917684 89.97157841 -37.30675429 86.81406536 -36.07421875 83.65234375 C-34.56272771 79.92033496 -32.86101262 76.28393768 -31.1484375 72.640625 C-29.94431894 69.98165167 -29.94431894 69.98165167 -29.02734375 67.0546875 C-27.95377527 63.86255612 -26.63191913 60.91628356 -25.1875 57.875 C-22.66991769 52.50211092 -20.34421735 47.07896444 -18.09375 41.58984375 C-16.85573102 38.65839167 -15.42264958 35.84529916 -14 33 C-13.55333984 31.62521484 -13.55333984 31.62521484 -13.09765625 30.22265625 C-11.98192676 26.94693799 -10.62057746 23.93151517 -9.125 20.8125 C-6.72546315 15.70324226 -4.6675435 10.58738735 -2.859375 5.2421875 C-2 3 -2 3 0 0 Z M21 20 C17.38960251 27.58059404 14.07558965 35.14504668 11.17578125 43.02734375 C9.9518403 46.12175924 8.50358628 49.03303027 7 52 C6.41589374 53.38693072 5.85273154 54.78289798 5.3125 56.1875 C2.37059038 63.65972672 -0.79172262 71.03962102 -3.91796875 78.43603516 C-5.00066239 81.00156959 -6.07915604 83.56882883 -7.15625 86.13671875 C-7.50719727 86.97275635 -7.85814453 87.80879395 -8.21972656 88.67016602 C-8.88378328 90.25241489 -9.54724073 91.83491548 -10.20996094 93.41772461 C-10.51708008 94.14870361 -10.82419922 94.87968262 -11.140625 95.6328125 C-11.44033203 96.34727539 -11.74003906 97.06173828 -12.04882812 97.79785156 C-12.7176174 99.3462292 -13.41138424 100.88393954 -14.12304688 102.41308594 C-14.6731543 103.59692871 -14.6731543 103.59692871 -15.234375 104.8046875 C-15.57178711 105.51351074 -15.90919922 106.22233398 -16.25683594 106.95263672 C-17.22746867 109.26364808 -17.22746867 109.26364808 -17 113 C-14.04355863 112.10619215 -11.39358332 111.24052314 -8.75 109.625 C-6.22222044 108.13131208 -3.85627472 107.11457712 -1.125 106.0625 C2.5115102 104.65395481 5.74398832 103.02734358 9.0859375 101 C11.50443736 99.73645722 13.98389319 98.8896541 16.5625 98 C20.89369179 96.49734162 24.19295773 94.56561544 28 92 C29.36155331 91.50314285 30.73880894 91.04828334 32.125 90.625 C38.08704328 88.80071667 43.49066814 85.88051361 49 83 C48.49339844 81.93072266 48.49339844 81.93072266 47.9765625 80.83984375 C44.19784401 72.72542803 44.19784401 72.72542803 43.0625 68.5625 C41.71966583 64.06005602 39.59170622 60.15273382 37.4453125 55.984375 C35.89090591 52.77473545 34.81300511 49.60312261 33.7734375 46.203125 C32.59459335 42.8452053 30.90376437 39.77985866 29.26171875 36.62890625 C27.50802009 32.97491492 26.24427127 29.19809086 24.9921875 25.34765625 C23.97777514 22.94741283 22.96198218 21.67932373 21 20 Z " fill="#E50000" transform="translate(537,3)"/>
<path d="M0 0 C8.91 0 17.82 0 27 0 C27.33 30.03 27.66 60.06 28 91 C35.96907781 87.85481256 35.96907781 87.85481256 43.171875 83.99609375 C46.10972101 82.39534432 49.22114176 81.26781204 52.3359375 80.05859375 C59.03701293 77.3958497 65.51320124 74.26659259 71.9375 71 C76.97309443 68.44950412 82.09664567 66.27456214 87.32421875 64.15234375 C89.54599417 63.19552076 91.55796114 62.18159599 93.625 60.9375 C97.19197349 58.88979299 100.764359 57.47453081 104.59375 56.00390625 C106.71375412 55.11942401 108.55380767 54.14469005 110.5 52.9375 C114 51 114 51 124 48 C124 32.16 124 16.32 124 0 C132.91 0 141.82 0 151 0 C151 53.79 151 107.58 151 163 C142.09 163 133.18 163 124 163 C123.67 134.62 123.34 106.24 123 77 C121.35 77.99 119.7 78.98 118 80 C116.38942117 80.68100038 114.76379959 81.32753146 113.125 81.9375 C110.09660886 83.1122299 107.27983058 84.32024455 104.5 86 C100.9693931 88.13168719 97.24594744 89.51963472 93.40625 91 C91.30468785 91.87337648 89.44329517 92.82668971 87.5 94 C83.96829179 96.13235213 80.24403292 97.5210941 76.40234375 99 C73.75334751 100.10267161 71.36456747 101.51343774 68.9140625 103 C66.49556264 104.26354278 64.01610681 105.1103459 61.4375 106 C57.10630821 107.50265838 53.80704227 109.43438456 50 112 C48.57581151 112.51739161 47.13628993 112.99363665 45.6875 113.4375 C41.48382613 114.72766635 37.91276844 116.57407654 34.140625 118.81640625 C32 120 32 120 27 122 C27 135.53 27 149.06 27 163 C18.09 163 9.18 163 0 163 C0 109.21 0 55.42 0 0 Z " fill="#E50000" transform="translate(0,3)"/>
<path d="M0 0 C9.57 0 19.14 0 29 0 C33.4796748 8.95934959 33.4796748 8.95934959 35.25 13.3125 C37.45430637 18.67744259 39.68576138 24.02983548 41.9375 29.375 C42.28321045 30.19637451 42.6289209 31.01774902 42.98510742 31.86401367 C44.99176616 36.62611257 47.01764517 41.37918719 49.0625 46.125 C51.24059901 51.18760851 53.35182455 56.27393177 55.4375 61.375 C58.03666157 67.72874572 60.73689219 74.03066259 63.5065918 80.31176758 C65.68886784 85.26630805 67.79615744 90.24842421 69.859375 95.25390625 C72.12569956 100.71016024 74.48997404 106.11679749 76.90527344 111.50830078 C79.77685902 117.91842963 82.57868719 124.32733849 85.125 130.875 C86.55681228 134.35225838 88.26959684 137.66279391 90 141 C92.01935607 137.97096589 92.86675437 135.43751175 94 132 C94.93206234 129.92549553 95.89168049 127.86320519 96.875 125.8125 C98.80825952 121.69320612 100.5670201 117.60971572 102.0625 113.3125 C103.64714152 108.76986098 105.6395207 104.59673961 107.84765625 100.328125 C109.17415862 97.64814055 110.18955725 94.93419518 111.19140625 92.12109375 C112.16501408 89.56713699 113.2923699 87.10669532 114.4375 84.625 C115.97930353 81.27682311 117.46210656 77.92976032 118.8125 74.5 C120.8093327 69.43049004 122.89610181 64.40079123 125 59.375 C125.33233643 58.57513672 125.66467285 57.77527344 126.00708008 56.95117188 C127.89841292 52.44582823 129.94297286 48.07281366 132.16064453 43.71972656 C133.12128917 41.7514948 133.82665048 39.78966489 134.4375 37.6875 C135.7972631 33.41292559 137.57241266 29.44546273 139.46484375 25.3828125 C141.47411839 20.95525057 143.36479036 16.48153299 145.25 12 C145.60344482 11.16227051 145.95688965 10.32454102 146.32104492 9.46142578 C147.63856854 6.32300467 148.92309087 3.23072738 150 0 C159.9 0 169.8 0 180 0 C179.14240477 6.00316664 178.405093 8.72065016 175.6875 13.8125 C173.17808835 18.62379712 170.90994784 23.4288054 168.96484375 28.49609375 C166.1730516 35.74118998 163.05812069 42.86438506 160 50 C159.2079219 51.91649667 158.41630156 53.83318257 157.625 55.75 C156.00955533 59.64153389 154.33427474 63.48979629 152.5625 67.3125 C150.27184672 72.28874678 148.2392795 77.3528927 146.23291016 82.44799805 C144.73606552 86.2266415 143.15109489 89.93996522 141.4375 93.625 C139.10387963 98.64491006 137.13228173 103.76682284 135.2109375 108.95703125 C133.97085131 112.07324784 132.51044678 115.00715187 131 118 C130.33357023 119.61666232 129.68645344 121.24147382 129.0625 122.875 C127.80985432 126.07620562 126.46629224 129.14097397 124.875 132.1875 C123.61728548 134.62069386 122.84827539 136.56354854 122.125 139.25 C120.75112285 143.82959049 118.65737812 147.81183813 116.4375 152.03515625 C115.01185538 154.97554828 113.98825474 157.88964467 113 161 C112.67 161.66 112.34 162.32 112 163 C97.48 163 82.96 163 68 163 C60.50694444 148.01388889 60.50694444 148.01388889 58.73828125 142.1328125 C57.88381219 139.66434632 56.76521207 137.44321844 55.5625 135.125 C53.27891138 130.72191297 51.59611828 126.26356809 49.96484375 121.5859375 C48.85701198 118.61676896 47.46962663 115.89522576 46 113.09375 C44.38776687 109.71813689 43.23978788 106.18189679 42 102.65625 C41.12472038 100.33128851 40.15216811 98.19632045 39 96 C37.37779347 92.90766879 36.15855721 89.79464705 35 86.5 C33.85623236 83.25116586 32.66406441 80.17376117 31.0625 77.125 C29.37505306 73.88692614 28.03835644 70.60444535 26.75 67.1875 C24.59284793 61.4707131 22.30185589 55.82174474 19.9375 50.1875 C19.60911133 49.39947998 19.28072266 48.61145996 18.94238281 47.79956055 C17.07422778 43.36759136 15.05908793 39.05636172 12.87719727 34.77075195 C11.78227133 32.56048259 10.87263139 30.3062401 10 28 C8.78627717 24.88239823 7.48741891 21.90179359 5.9375 18.9375 C2.79108165 12.80570046 1.13242924 6.79457542 0 0 Z " fill="#E50000" transform="translate(317,3)"/>
</svg>
