<?xml version="1.0" encoding="UTF-8"?>
<svg version="1.1" xmlns="http://www.w3.org/2000/svg" width="2000" height="283">
<path d="M0 0 C534.93 0 1069.86 0 1621 0 C1621 93.39 1621 186.78 1621 283 C1086.07 283 551.14 283 0 283 C0 189.61 0 96.22 0 0 Z " fill="#191819" transform="translate(379,0)"/>
<path d="M0 0 C90.09971614 0 90.09971614 0 109.33984375 19.1171875 C126.96715309 38.2199104 130.44290558 67.05700242 130.3125 92 C130.31100952 92.71145172 130.30951904 93.42290344 130.3079834 94.15591431 C130.2419898 111.80353706 128.83803182 129.2268855 123 146 C122.72671875 146.84949219 122.4534375 147.69898438 122.171875 148.57421875 C116.20453807 165.41838346 104.94316649 177.36582732 89 185 C59.99356992 197.23274368 33.65551604 192 0 192 C0 128.64 0 65.28 0 0 Z " fill="#FCFCFC" transform="translate(732,46)"/>
<path d="M0 0 C98.55239787 0 98.55239787 0 113 14 C117.98764072 19.70674603 121.22393839 25.63617534 123 33 C123.18433594 33.70125 123.36867188 34.4025 123.55859375 35.125 C124.2265036 39.47528011 124.1844029 43.79271715 124.1875 48.1875 C124.19974609 49.08275391 124.21199219 49.97800781 124.22460938 50.90039062 C124.25218804 63.6325425 121.50697259 73.58770165 112.4375 82.875 C109.74544692 85.4055299 106.9463858 87.76788955 104 90 C104.56847656 90.35191406 105.13695312 90.70382813 105.72265625 91.06640625 C115.86906017 97.55400675 123.61369037 105.1268397 126.55786133 117.30810547 C128.78795173 130.88567411 128.83778131 147.36427598 123 160 C122.649375 160.86882812 122.29875 161.73765625 121.9375 162.6328125 C116.78418279 174.33513699 107.84944929 182.21989578 96.23828125 187.1796875 C65.55129727 198.90665209 33.09034282 192 0 192 C0 128.64 0 65.28 0 0 Z " fill="#FCFCFC" transform="translate(1102,46)"/>
<path d="M0 0 C89.71607516 0 89.71607516 0 108.90234375 18.87109375 C115.89601055 26.47689769 120.65580949 35.26735586 124 45 C124.27714844 45.80566406 124.55429688 46.61132812 124.83984375 47.44140625 C129.30194039 61.98206943 129.35178497 77.66231541 129.31567383 92.74072266 C129.31250216 95.49812018 129.33613755 98.25445157 129.36132812 101.01171875 C129.45074729 126.33511385 125.24269139 153.99719647 107 173 C78.9533811 199.50405486 34.104005 192 0 192 C0 128.64 0 65.28 0 0 Z " fill="#FCFCFC" transform="translate(1702,46)"/>
<path d="M0 0 C13.86 0 27.72 0 42 0 C50.06896552 20.97931034 50.06896552 20.97931034 53.1484375 30.5390625 C53.93727378 32.81872698 54.84751963 34.94473677 55.875 37.125 C57.93993954 41.57069337 59.42418104 46.15833938 60.9375 50.8125 C62.91551456 56.88901994 65.08995356 62.76595495 67.6328125 68.6328125 C70.74461871 76.29674665 73.32193885 84.17592884 76 92 C76.35191406 91.05382812 76.70382812 90.10765625 77.06640625 89.1328125 C79.81934378 81.75225505 82.61947165 74.39424479 85.5 67.0625 C88.08177645 60.48137632 90.48688999 53.85595044 92.80297852 47.17724609 C94.39290024 42.62632586 96.11503616 38.15205427 97.9375 33.6875 C100.73185508 26.83397649 103.18491733 19.88757054 105.55249023 12.87573242 C105.96543335 11.66687378 105.96543335 11.66687378 106.38671875 10.43359375 C106.62608154 9.72259521 106.86544434 9.01159668 107.11206055 8.27905273 C108.2188777 5.43821191 109.63651763 2.72696473 111 0 C124.86 0 138.72 0 153 0 C153 63.36 153 126.72 153 192 C139.14 192 125.28 192 111 192 C110.67 161.31 110.34 130.62 110 99 C106.54465691 107.63835773 103.22050002 116.12557772 100.14453125 124.875 C98.94138538 128.16003992 97.55697465 131.30230902 96.09375 134.4765625 C93.74172151 139.90302823 91.78423826 145.49756343 89.73046875 151.04248047 C88.69831567 153.80845753 87.6310071 156.56039125 86.5625 159.3125 C83.26948412 167.83559992 80.14354152 176.42094001 77 185 C76.34 185 75.68 185 75 185 C74.54560547 183.49373047 74.54560547 183.49373047 74.08203125 181.95703125 C71.39662037 173.15087756 68.41087884 164.5562671 65 156 C63.86905745 153.14814919 62.74457389 150.29383294 61.625 147.4375 C61.33012695 146.68533203 61.03525391 145.93316406 60.73144531 145.15820312 C58.15143715 138.51433346 55.81106209 131.796683 53.49145508 125.05834961 C51.90148976 120.47206698 50.21940096 115.96693007 48.3125 111.5 C45.9089724 105.78350193 43.96100217 99.88300651 42 94 C41.67 126.01 41.34 158.02 41 191 C27.47 191 13.94 191 0 191 C0 127.97 0 64.94 0 0 Z " fill="#FCFCFC" transform="translate(421,46)"/>
<path d="M0 0 C94.23643411 0 94.23643411 0 109 13 C109.65226562 13.52078125 110.30453125 14.0415625 110.9765625 14.578125 C120.1273256 22.55984788 123.71304148 34.33874043 125 46 C125.29632065 50.50480715 125.369865 54.9863376 125.375 59.5 C125.39949219 60.63308594 125.42398437 61.76617187 125.44921875 62.93359375 C125.50245947 78.42664249 119.42346588 91.72563894 109 103 C106.73752532 104.90456908 104.51529116 106.42794303 102 108 C102.70942305 114.03523668 104.74064372 119.58946028 106.6875 125.3125 C107.04618164 126.37903809 107.40486328 127.44557617 107.77441406 128.54443359 C110.10420185 135.44562601 112.51922145 142.31299833 114.984375 149.16674805 C116.96415602 154.73761666 118.56618615 160.36986083 120.13671875 166.0703125 C120.97886377 169.1408885 120.97886377 169.1408885 122.5 172.5 C124.70212074 177.63828172 128 185.34900783 128 191 C111.83 191 95.66 191 79 191 C77.22625 185.06 75.4525 179.12 73.625 173 C68.22368166 154.95492326 62.66970286 136.96242144 57 119 C53.04 118.67 49.08 118.34 45 118 C45 142.42 45 166.84 45 192 C30.15 192 15.3 192 0 192 C0 128.64 0 65.28 0 0 Z " fill="#FCFCFC" transform="translate(1249,46)"/>
<path d="M0 0 C13.53 0 27.06 0 41 0 C48.375 13.375 48.375 13.375 50.79736328 17.76953125 C54.21107985 23.96037626 57.63434696 30.14518289 61.09350586 36.31079102 C65.28468675 43.79156671 69.33183276 51.34258168 73.3125 58.9375 C73.80459961 59.87319824 74.29669922 60.80889648 74.80371094 61.77294922 C78.09300662 68.08844172 81.1136108 74.49149685 84 81 C85.32 83.97 86.64 86.94 88 90 C88 60.3 88 30.6 88 0 C102.19 0 116.38 0 131 0 C131 63.03 131 126.06 131 191 C118.79 191 106.58 191 94 191 C75.51479915 155.13319239 75.51479915 155.13319239 69.34179688 142.65966797 C66.70066442 137.34205111 63.93154661 132.10739447 61.125 126.875 C55.0210302 115.11369233 49.55290519 103.03129459 44 91 C43.67 124.33 43.34 157.66 43 192 C28.81 192 14.62 192 0 192 C0 128.64 0 65.28 0 0 Z " fill="#FDFDFD" transform="translate(1546,46)"/>
<path d="M0 0 C10.05481008 10.1724102 20 30.30535059 20 45 C9.3714997 48.42167521 -1.28821493 51.72290163 -12 54.875 C-13.04414063 55.1851001 -14.08828125 55.4952002 -15.1640625 55.81469727 C-16.14117187 56.10014404 -17.11828125 56.38559082 -18.125 56.6796875 C-18.99382812 56.93476074 -19.86265625 57.18983398 -20.7578125 57.45263672 C-23 58 -23 58 -26 58 C-27.44848205 53.88358734 -28.50295373 49.83552673 -29.375 45.5625 C-30.54527086 40.30528323 -32.10108364 36.49831848 -35 32 C-35 31.34 -35 30.68 -35 30 C-41.44321074 27.71802953 -46.20936839 27.53543779 -52.75 30.0625 C-59.57393706 35.93866802 -61.25973997 46.08668692 -62.109375 54.625 C-62.19346619 55.45330322 -62.27755737 56.28160645 -62.36419678 57.13500977 C-63.15584482 65.58269894 -63.30348657 73.99966346 -63.26074219 82.47949219 C-63.25000173 84.9995934 -63.2607345 87.51898224 -63.2734375 90.0390625 C-63.28114339 98.5135885 -62.96757702 106.88723084 -62.1015625 115.3203125 C-62.0230304 116.09165527 -61.94449829 116.86299805 -61.86358643 117.65771484 C-60.94401147 125.75799981 -59.36794561 135.3598196 -53 141 C-47.73363837 143.99459779 -42.93839324 144.92691901 -37 144 C-32.42514768 142.44852834 -28.22912966 140.45825933 -26 136 C-23.75254887 129.13278821 -23.41604425 122.18223755 -23 115 C-23.63091553 115.00523682 -24.26183105 115.01047363 -24.91186523 115.01586914 C-27.75373347 115.03657826 -30.59558588 115.04964066 -33.4375 115.0625 C-34.43072266 115.07087891 -35.42394531 115.07925781 -36.44726562 115.08789062 C-37.39150391 115.09111328 -38.33574219 115.09433594 -39.30859375 115.09765625 C-40.18314209 115.10289307 -41.05769043 115.10812988 -41.95874023 115.11352539 C-44 115 -44 115 -45 114 C-45.08854347 111.3339846 -45.115319 108.69330601 -45.09765625 106.02734375 C-45.09664917 105.32065552 -45.09564209 104.61396729 -45.09460449 103.88586426 C-45.08935745 101.23639309 -45.07539629 98.58694498 -45.0625 95.9375 C-45.041875 90.018125 -45.02125 84.09875 -45 78 C-22.89 78 -0.78 78 22 78 C22.0825 85.899375 22.165 93.79875 22.25 101.9375 C22.28641602 104.3930835 22.32283203 106.84866699 22.36035156 109.37866211 C22.49383194 124.70672184 21.75036724 139.64207271 14.3125 153.4375 C13.9707373 154.09161865 13.62897461 154.7457373 13.27685547 155.41967773 C5.17818136 170.29048736 -7.40271325 178.39713514 -23.12963867 183.46850586 C-29.88789526 185.38897637 -36.84945901 185.18318852 -43.8125 185.1875 C-45.35647461 185.20586914 -45.35647461 185.20586914 -46.93164062 185.22460938 C-64.41640834 185.2577873 -77.54637212 179.87481963 -90.328125 167.80078125 C-100.38511136 157.11043506 -106.12937166 142.81608092 -109.37890625 128.6796875 C-109.87582104 126.53576583 -110.48280495 124.41747268 -111.125 122.3125 C-113.10281704 114.82504976 -113.17716832 107.13474894 -113.23828125 99.4296875 C-113.246353 98.43156036 -113.25442474 97.43343323 -113.26274109 96.40505981 C-113.27650707 94.29561049 -113.28726232 92.18613959 -113.29516602 90.07666016 C-113.30658667 87.96721638 -113.32687712 85.85779917 -113.35668945 83.74853516 C-113.77446867 54.07454066 -109.51561557 23.27784349 -88 1 C-63.95673232 -19.09197097 -24.07856192 -20.73947013 0 0 Z " fill="#FFDE00" transform="translate(320,56)"/>
<path d="M0 0 C16.17 0 32.34 0 49 0 C49.99 4.95 49.99 4.95 51 10 C51.63612012 12.34184544 52.30196425 14.67585823 53 17 C57.05216317 31.1931974 60.67199503 45.49417169 64.25 59.8125 C64.47018799 60.69243622 64.69037598 61.57237244 64.91723633 62.47897339 C65.55586305 65.03374808 66.19245443 67.58901956 66.828125 70.14453125 C67.11221222 71.28267776 67.11221222 71.28267776 67.40203857 72.44381714 C68.51929206 76.95170668 69.56326228 81.47011163 70.54653931 86.00917053 C71.23779071 89.04397306 72.12191566 92.01451323 73 95 C75.86854539 105.20449755 78.70337354 115.41425355 81.0625 125.75 C82.29589931 131.14918505 83.66423282 136.48676761 85.1875 141.8125 C87.70177769 150.64446806 89.95072185 159.54258947 92.18716431 168.4480896 C92.60321372 170.10434841 93.02050627 171.76029545 93.4390564 173.41592407 C94.03219079 175.76462787 94.62037636 178.11451421 95.20703125 180.46484375 C95.478535 181.53715744 95.478535 181.53715744 95.75552368 182.63113403 C96.46720246 185.50451474 97 188.02652411 97 191 C81.49 191 65.98 191 50 191 C48.64289066 187.60722665 47.74300041 185.32609724 47.18359375 181.8984375 C47.05919922 181.16109375 46.93480469 180.42375 46.80664062 179.6640625 C46.68482422 178.90867188 46.56300781 178.15328125 46.4375 177.375 C45.52177546 171.61860409 45.52177546 171.61860409 44 166 C44 162.7 44 159.4 44 156 C31.13 156 18.26 156 5 156 C4.505 162.435 4.505 162.435 4 169 C3.40206327 171.35188447 2.74118205 173.68925595 2 176 C1.27348642 179.32195701 0.63895281 182.66026346 0 186 C-0.33 187.65 -0.66 189.3 -1 191 C-16.51 191 -32.02 191 -48 191 C-47.2833788 185.98365157 -46.44340413 181.40971122 -45.21484375 176.53125 C-44.94999428 175.47405006 -44.94999428 175.47405006 -44.67979431 174.39549255 C-44.10262823 172.09607231 -43.52021541 169.79801964 -42.9375 167.5 C-42.53056391 165.88489683 -42.12382836 164.26974312 -41.71728516 162.65454102 C-37.87643734 147.41961285 -33.95051833 132.20681795 -30 117 C-29.40870956 114.72008958 -28.81756025 112.44014256 -28.2265625 110.16015625 C-27.36806581 106.84843217 -26.50952356 103.53672006 -25.65063477 100.22509766 C-19.2385484 75.63463865 -19.2385484 75.63463865 -13 51 C-11.16539771 43.64432399 -9.3040142 36.29568562 -7.42236328 28.9519043 C-7.06048922 27.53749646 -6.69979163 26.12278705 -6.34033203 24.70776367 C-5.8317042 22.70667104 -5.31869916 20.70674678 -4.8046875 18.70703125 C-4.35585205 16.95096558 -4.35585205 16.95096558 -3.89794922 15.15942383 C-3 12 -3 12 -1.94970703 9.51831055 C-0.64758535 6.34136061 -0.64758535 6.34136061 0 0 Z " fill="#FCFCFC" transform="translate(992,46)"/>
<path d="M0 0 C15.84 0 31.68 0 48 0 C49.485 5.795625 50.97 11.59125 52.5 17.5625 C56.30041342 32.39814627 56.30041342 32.39814627 60.12890625 47.2265625 C62.90861486 57.95185894 65.68003402 68.67788678 68.35546875 79.4296875 C68.65512291 80.63323631 68.65512291 80.63323631 68.96083069 81.86109924 C69.92974232 85.75563738 70.89532183 89.65095949 71.85571289 93.54760742 C73.47617595 100.09598271 75.14735558 106.60914548 77.0390625 113.0859375 C79.38859582 121.17344281 81.22853844 129.3619398 83.078125 137.57446289 C83.52013041 139.53086078 83.96703377 141.48615005 84.4140625 143.44140625 C84.6713916 144.58295166 84.9287207 145.72449707 85.19384766 146.90063477 C85.93220924 149.73936897 86.90753623 152.28487115 88 155 C88.59846942 157.18611622 89.15915102 159.38276385 89.69140625 161.5859375 C90.14870117 163.47699219 90.14870117 163.47699219 90.61523438 165.40625 C90.77080811 166.05851563 90.92638184 166.71078125 91.08666992 167.3828125 C91.55970134 169.36328267 92.04014938 171.3418461 92.52148438 173.3203125 C93.94406936 179.24019906 95.13654026 184.95578181 96 191 C80.49 191 64.98 191 49 191 C47.63161662 186.89484986 46.62557365 183.51337634 45.9296875 179.33984375 C45.66865234 177.7784668 45.66865234 177.7784668 45.40234375 176.18554688 C45.14130859 174.57776367 45.14130859 174.57776367 44.875 172.9375 C44.69324219 171.86177734 44.51148438 170.78605469 44.32421875 169.67773438 C43.5526348 164.99891894 43 160.76701995 43 156 C30.13 156 17.26 156 4 156 C3.34 161.61 2.68 167.22 2 173 C0.68 178.94 -0.64 184.88 -2 191 C-17.51 191 -33.02 191 -49 191 C-46.74608905 178.60348977 -46.74608905 178.60348977 -45.34375 172.9765625 C-45.04339844 171.77128906 -44.74304687 170.56601563 -44.43359375 169.32421875 C-44.12550781 168.10347656 -43.81742188 166.88273438 -43.5 165.625 C-43.19191406 164.38105469 -42.88382813 163.13710937 -42.56640625 161.85546875 C-42.26605469 160.65792969 -41.96570312 159.46039063 -41.65625 158.2265625 C-41.38619141 157.14971191 -41.11613281 156.07286133 -40.83789062 154.96337891 C-40.05898747 152.20862177 -39.08685674 149.6445806 -38 147 C-37.56561694 145.13355408 -37.17475404 143.25677603 -36.8125 141.375 C-35.25144497 133.83526513 -33.36365902 126.39165125 -31.4375 118.9375 C-31.13239502 117.74753418 -30.82729004 116.55756836 -30.51293945 115.33154297 C-30.21863037 114.19990723 -29.92432129 113.06827148 -29.62109375 111.90234375 C-29.3573999 110.88648193 -29.09370605 109.87062012 -28.82202148 108.82397461 C-28 106 -28 106 -26.96386719 103.41894531 C-26.02602334 101.06530882 -25.45330285 98.87485373 -24.95703125 96.39453125 C-24.77406494 95.50709229 -24.59109863 94.61965332 -24.40258789 93.70532227 C-24.20785889 92.75069092 -24.01312988 91.79605957 -23.8125 90.8125 C-21.75761592 81.04692292 -19.3153243 71.43336056 -16.66845703 61.81298828 C-14.2824549 53.12679503 -12.0699586 44.40629032 -9.95336914 35.65063477 C-9.72512451 34.71791748 -9.49687988 33.7852002 -9.26171875 32.82421875 C-9.06537842 32.01041748 -8.86903809 31.19661621 -8.66674805 30.3581543 C-7.94895184 27.81945289 -6.98579487 25.44533827 -6 23 C-5.21596339 19.60113971 -4.55039752 16.18831194 -3.87890625 12.765625 C-2.86806167 8.43471755 -1.4063629 4.21908871 0 0 Z " fill="#FCFCFC" transform="translate(1434,46)"/>
<path d="M0 0 C9.78044591 -0.06995815 19.56083087 -0.12304139 29.34147739 -0.15543652 C33.8845621 -0.17099592 38.4274738 -0.19205304 42.97045898 -0.22631836 C47.36659853 -0.2592631 51.76257322 -0.27692582 56.15882683 -0.28463173 C57.8238986 -0.29011299 59.48896284 -0.30081342 61.15396309 -0.31719017 C80.18893261 -0.49672138 97.42345146 1.79643265 111.8125 15.5859375 C125.19441757 30.3538394 126.93057662 50.11052696 126.19091797 69.10839844 C125.14515999 84.94721874 119.83102359 99.71601437 107.9765625 110.7109375 C89.44490952 124.96231368 70.33555105 124 47 124 C47 147.1 47 170.2 47 194 C35.6459375 194.0309375 35.6459375 194.0309375 24.0625 194.0625 C21.67008057 194.071604 19.27766113 194.08070801 16.81274414 194.09008789 C14.92854875 194.09300692 13.04435273 194.09555551 11.16015625 194.09765625 C10.17204956 194.10277222 9.18394287 194.10788818 8.16589355 194.11315918 C6.76518616 194.11334045 6.76518616 194.11334045 5.33618164 194.11352539 C4.52121719 194.115746 3.70625275 194.11796661 2.86659241 194.12025452 C1 194 1 194 0 193 C-0.09772312 190.5084728 -0.12995818 188.04469492 -0.12025452 185.55271912 C-0.12110894 184.76373909 -0.12196337 183.97475906 -0.12284368 183.16187054 C-0.12450089 180.49778373 -0.11897321 177.83375882 -0.11352539 175.16967773 C-0.11324354 173.26807659 -0.1134012 171.36647534 -0.1139679 169.46487427 C-0.11425597 164.28533716 -0.10835763 159.10582299 -0.10139394 153.92629123 C-0.09516206 148.51971473 -0.09455673 143.11313776 -0.09336853 137.70655823 C-0.09025472 127.46074709 -0.08204067 117.21494657 -0.07201904 106.96914011 C-0.06085943 95.30791337 -0.05534784 83.64668614 -0.05032361 71.98545539 C-0.0398581 47.9902977 -0.0222577 23.99514944 0 0 Z M47 39 C47 54.18 47 69.36 47 85 C61.50148736 86.03219609 61.50148736 86.03219609 73.875 80.5 C78.89908512 73.32025205 79.88617329 64.52183078 79 56 C77.84250612 49.70107979 76.31698964 44.9568295 71 41 C63.20804266 38.0513167 63.20804266 38.0513167 47 39 Z " fill="#FFDE00" transform="translate(68,45)"/>
<path d="M0 0 C36.96 0 73.92 0 112 0 C112 12.87 112 25.74 112 39 C89.89 39 67.78 39 45 39 C45 49.89 45 60.78 45 72 C59.52 72 74.04 72 89 72 C89 84.87 89 97.74 89 111 C74.81 111 60.62 111 46 111 C46 124.53 46 138.06 46 152 C68.44 152 90.88 152 114 152 C114 165.2 114 178.4 114 192 C76.38 192 38.76 192 0 192 C0 128.64 0 65.28 0 0 Z " fill="#FCFCFC" transform="translate(598,46)"/>
<path d="M0 0 C1.10794922 -0.01611328 2.21589844 -0.03222656 3.35742188 -0.04882812 C19.3305065 -0.05816365 34.25409239 4.71123797 46.3125 15.3125 C47.18261719 16.06273437 48.05273438 16.81296875 48.94921875 17.5859375 C53.14399957 21.2724456 56.90617235 24.86946394 60.3125 29.3125 C58.74919608 33.30450821 55.95211521 35.72871406 52.8125 38.5 C52.01271729 39.21857178 52.01271729 39.21857178 51.19677734 39.95166016 C50.10182879 40.93460684 49.0046543 41.91507958 47.90527344 42.89306641 C45.56848929 44.97554082 43.25561402 47.08428712 40.9375 49.1875 C39.3974938 50.56435948 37.8560122 51.93957204 36.3125 53.3125 C35.39791016 54.13814453 35.39791016 54.13814453 34.46484375 54.98046875 C30.66614146 58.3125 30.66614146 58.3125 27.3125 58.3125 C25.734375 56.80859375 25.734375 56.80859375 24.0625 54.75 C15.87973111 44.50517921 15.87973111 44.50517921 4.3125 39.3125 C-2.45916723 38.95350464 -2.45916723 38.95350464 -8.6875 41.3125 C-12.52901849 45.58085388 -14.07325137 48.26161308 -13.95703125 54.09375 C-13.28781756 59.60263949 -10.70194238 63.8216954 -6.4375 67.3125 C1.30614918 72.62990263 10.22186677 76.64726963 18.875 80.25 C34.34248724 87.03916425 49.66956931 97.68931779 57.4375 113.0625 C57.93507813 114.02671875 58.43265625 114.9909375 58.9453125 115.984375 C62.15048207 123.78667351 62.65275289 131.31722969 62.625 139.6875 C62.64111328 140.65171875 62.65722656 141.6159375 62.67382812 142.609375 C62.68373137 157.38501489 57.25943986 171.29715187 46.97265625 181.99609375 C41.88881144 186.42299533 36.3874647 189.49329422 30.3125 192.3125 C29.18972656 192.84230469 28.06695313 193.37210938 26.91015625 193.91796875 C17.77175125 197.46021694 8.87972064 197.79398864 -0.875 197.875 C-2.13376953 197.88982422 -3.39253906 197.90464844 -4.68945312 197.91992188 C-25.7369619 197.68838825 -41.01680045 188.26718263 -55.42578125 173.7421875 C-59.98411404 168.84532567 -59.98411404 168.84532567 -61.6875 166.3125 C-61.35181042 162.72742599 -59.81060777 161.12010413 -57.22265625 158.73828125 C-56.50940186 158.07441406 -55.79614746 157.41054687 -55.0612793 156.7265625 C-54.29855713 156.03304687 -53.53583496 155.33953125 -52.75 154.625 C-51.97889893 153.91472656 -51.20779785 153.20445312 -50.41333008 152.47265625 C-48.8773159 151.05990346 -47.33822834 149.65048398 -45.79589844 148.24462891 C-44.00358775 146.60216171 -42.23383896 144.9414176 -40.4765625 143.26171875 C-39.61804687 142.45347656 -38.75953125 141.64523438 -37.875 140.8125 C-37.14667969 140.1215625 -36.41835937 139.430625 -35.66796875 138.71875 C-33.6875 137.3125 -33.6875 137.3125 -29.6875 137.3125 C-27.94140625 138.66796875 -27.94140625 138.66796875 -26.25 140.5 C-25.64414063 141.14066406 -25.03828125 141.78132812 -24.4140625 142.44140625 C-23.84429688 143.05886719 -23.27453125 143.67632812 -22.6875 144.3125 C-15.61235549 151.56020901 -9.2675786 157.88101944 1.125 158.5625 C5.52577132 158.49681685 8.45320978 157.431326 12.3125 155.3125 C15.86134623 151.52706402 16.46526755 148.0084376 16.5 142.9375 C16.51417969 142.00164062 16.52835938 141.06578125 16.54296875 140.1015625 C16.05753905 134.22704038 13.64233504 131.16124226 9.3125 127.3125 C3.81798167 123.01924118 -1.7999334 120.30586734 -8.1875 117.5625 C-28.11473508 108.72891359 -45.64819781 98.5525776 -55.86328125 78.4921875 C-60.812589 65.40349685 -60.86942868 48.12962492 -55.9453125 35.02734375 C-48.76544389 19.53042236 -38.20917265 9.24748217 -22.171875 3.13671875 C-21.35203125 2.86472656 -20.5321875 2.59273437 -19.6875 2.3125 C-18.20056641 1.77496094 -18.20056641 1.77496094 -16.68359375 1.2265625 C-11.24133358 -0.29185006 -5.60473813 -0.01602269 0 0 Z " fill="#FCFCFC" transform="translate(1905.6875,42.6875)"/>
<path d="M0 0 C15.51 0 31.02 0 47 0 C47 64.02 47 128.04 47 194 C31.49 194 15.98 194 0 194 C0 129.98 0 65.96 0 0 Z " fill="#FFDE00" transform="translate(0,45)"/>
<path d="M0 0 C15.18 0 30.36 0 46 0 C46 63.36 46 126.72 46 192 C30.82 192 15.64 192 0 192 C0 128.64 0 65.28 0 0 Z " fill="#FDFDFD" transform="translate(883,46)"/>
<path d="M0 0 C20.74172185 0 20.74172185 0 25.921875 4.76953125 C36.61901331 16.32862905 37.09574515 31.36904457 37.23828125 46.42578125 C37.2480751 47.2879425 37.25786896 48.15010376 37.26795959 49.03839111 C37.6945584 96.21751079 37.6945584 96.21751079 28.49609375 107.48046875 C24.05382794 111.99232619 20.18461426 114.30558513 14 116 C9.38 116 4.76 116 0 116 C0 77.72 0 39.44 0 0 Z " fill="#1C1B1C" transform="translate(778,84)"/>
<path d="M0 0 C20.24050633 0 20.24050633 0 26.8359375 5.54296875 C32.45795955 11.53522152 34.37439761 19.32171632 35.6640625 27.2421875 C35.79019928 28.01408417 35.91633606 28.78598083 36.04629517 29.58126831 C37.29358364 37.90038506 37.45385106 46.17002827 37.39111328 54.56884766 C37.37496173 57.13107116 37.39111205 59.69172844 37.41015625 62.25390625 C37.42849475 77.32815192 36.87161712 96.80564945 27 109 C18.89263949 116.88215605 11.3163539 116 0 116 C0 77.72 0 39.44 0 0 Z " fill="#1B1A1B" transform="translate(1748,84)"/>
<path d="M0 0 C4.475625 -0.12375 8.95125 -0.2475 13.5625 -0.375 C14.96056885 -0.42962402 16.3586377 -0.48424805 17.79907227 -0.54052734 C28.09061181 -0.67829103 28.09061181 -0.67829103 32.21484375 2.6484375 C37.93771561 8.87578742 38.5460277 14.64772974 38.5625 22.8125 C38.59923828 23.75931641 38.63597656 24.70613281 38.67382812 25.68164062 C38.71798825 32.811047 36.9716198 37.78439941 32 43 C28.13315332 45.90361607 25.39715165 46.36109694 20.60546875 46.29296875 C19.52160889 46.28547607 18.43774902 46.2779834 17.32104492 46.27026367 C15.9569751 46.24295166 14.59290527 46.21563965 13.1875 46.1875 C8.835625 46.125625 4.48375 46.06375 0 46 C0 30.82 0 15.64 0 0 Z " fill="#1D1C1D" transform="translate(1146,156)"/>
<path d="M0 0 C22 0 22 0 30 4 C34.81805428 10.05345281 35.2048483 14.78826476 35.25 22.1875 C35.270625 23.01314453 35.29125 23.83878906 35.3125 24.68945312 C35.3568448 31.72364666 34.22855927 37.30227036 29.625 42.875 C20.58813717 50.19055562 12.77868547 47 0 47 C0 31.49 0 15.98 0 0 Z " fill="#1C1B1C" transform="translate(1294,82)"/>
<path d="M0 0 C5.4759375 -0.0928125 5.4759375 -0.0928125 11.0625 -0.1875 C12.76805054 -0.22846802 12.76805054 -0.22846802 14.50805664 -0.27026367 C22.26310524 -0.33366759 26.95800911 0.28101621 32.90625 5.59765625 C35.65635995 10.06658492 35.67669125 13.30140665 35.5 18.4375 C35.50386719 19.66823242 35.50386719 19.66823242 35.5078125 20.92382812 C35.42160201 26.32491543 34.54993112 30.22422972 32 35 C27.65585419 39.02628149 25.1749445 40.12714618 19.3359375 40.09765625 C18.3257959 40.09515869 17.3156543 40.09266113 16.27490234 40.09008789 C14.98793457 40.08098389 13.7009668 40.07187988 12.375 40.0625 C6.249375 40.0315625 6.249375 40.0315625 0 40 C0 26.8 0 13.6 0 0 Z " fill="#201F20" transform="translate(1146,81)"/>
<path d="M0 0 C0.33 0 0.66 0 1 0 C1.13575439 0.87100342 1.27150879 1.74200684 1.41137695 2.6394043 C1.92766501 5.93704949 2.44820375 9.23396973 2.97143555 12.53051758 C3.19509053 13.94497124 3.41715188 15.35967801 3.63745117 16.7746582 C4.9189902 24.99811024 6.41113698 33.08043571 8.35522461 41.17944336 C9.17445106 44.76313256 9.68906886 48.28756746 10.125 51.9375 C10.65981085 56.32388719 11.27266108 60.6359665 12 65 C4.41 65 -3.18 65 -11 65 C-10.40856349 60.26850793 -9.81797764 55.70466868 -8.94921875 51.04296875 C-8.7471582 49.94259277 -8.54509766 48.8422168 -8.33691406 47.70849609 C-8.12260742 46.54656738 -7.90830078 45.38463867 -7.6875 44.1875 C-5.6372768 32.94120266 -3.84399702 21.67696884 -2.2565918 10.35620117 C-2.10488525 9.28732666 -1.95317871 8.21845215 -1.796875 7.1171875 C-1.66635742 6.17472168 -1.53583984 5.23225586 -1.40136719 4.26123047 C-1 2 -1 2 0 0 Z " fill="#242324" transform="translate(1457,100)"/>
<path d="M0 0 C0.66 0 1.32 0 2 0 C2.09578339 0.61894638 2.19156677 1.23789276 2.29025269 1.87559509 C3.29267256 8.3493373 4.29921917 14.82242848 5.30810547 21.29516602 C5.68350194 23.70711259 6.0578652 26.11922022 6.43115234 28.53149414 C6.96957616 32.009712 7.51178009 35.48732326 8.0546875 38.96484375 C8.21935516 40.03395493 8.38402283 41.1030661 8.55368042 42.20457458 C9.38226893 47.48829302 10.30507059 52.68490613 11.63088989 57.86842346 C12 60 12 60 12 66 C4.74 66 -2.52 66 -10 66 C-8.89147384 57.13179074 -8.89147384 57.13179074 -8.02734375 53.65625 C-6.86702305 48.64143194 -6.20693962 43.60294664 -5.5625 38.5 C-4.56291438 30.84639858 -3.39045493 23.25813246 -1.99121094 15.66821289 C-1.04259314 10.45145423 -0.41933467 5.28361688 0 0 Z " fill="#242324" transform="translate(1015,99)"/>
<path d="M0 0 C0.33 0 0.66 0 1 0 C1 31.35 1 62.7 1 95 C0.67 95 0.34 95 0 95 C-0.33 66.62 -0.66 38.24 -1 9 C-1.66 9 -2.32 9 -3 9 C-2.01 6.03 -1.02 3.06 0 0 Z " fill="#3B3A3B" transform="translate(531,142)"/>
</svg>
