<?xml version="1.0" encoding="UTF-8"?>
<svg version="1.1" xmlns="http://www.w3.org/2000/svg" width="2427" height="896">
<path d="M0 0 C25.554375 -0.061875 51.10875 -0.12375 77.4375 -0.1875 C89.50010376 -0.22846802 89.50010376 -0.22846802 101.80639648 -0.27026367 C111.69543457 -0.28381348 111.69543457 -0.28381348 116.33827209 -0.28633118 C119.55175609 -0.28910405 122.76508844 -0.30025719 125.97853088 -0.31672668 C130.09846235 -0.33755698 134.21817854 -0.34342755 138.33815777 -0.33921683 C139.83706281 -0.34009515 141.33597667 -0.34589261 142.83483589 -0.35764539 C156.52437156 -0.45985678 170.13702419 1.13701479 183.125 5.6875 C183.86451904 5.94241211 184.60403809 6.19732422 185.3659668 6.45996094 C211.366635 15.78710517 231.13920174 34.21675437 243.3190918 58.91625977 C255.37646302 84.64377161 254.19905272 115.57301959 245 142 C236.95188213 162.33582958 222.8261792 176.47902594 202.91943359 185.37695312 C182.60427055 194 182.60427055 194 178 194 C183.17488076 200.70213783 188.66436589 206.99966209 194.4140625 213.203125 C198.61834811 217.75035838 202.66380899 222.42432277 206.671875 227.14453125 C212.22133583 233.66926861 217.86270771 240.06392149 223.71411133 246.31958008 C226.7383702 249.57331665 229.60000498 252.90240919 232.375 256.375 C236.60486868 261.65079984 241.18702663 266.52843837 245.83178711 271.43505859 C250.13714535 276.0077105 254.12385086 280.72451084 258.0390625 285.63671875 C260.31956015 288.38512728 262.76960598 290.85200748 265.39453125 293.26953125 C267.59008333 295.63602656 269.23048274 298.30626759 271 301 C261.52480769 301.25577989 252.05081719 301.45076655 242.57291603 301.56993389 C238.17089866 301.62715448 233.77125598 301.70464306 229.37060547 301.82983398 C225.11691672 301.95007556 220.86549887 302.01526833 216.61024094 302.04364967 C214.99372996 302.06385067 213.37733239 302.10330422 211.76179886 302.16303062 C199.1627049 302.60994988 199.1627049 302.60994988 193.87176514 298.67129517 C191.3203402 295.89817371 189.15164749 293.08955968 187 290 C185.51144943 288.15735833 184.012928 286.32267934 182.5 284.5 C181.7678125 283.5925 181.035625 282.685 180.28125 281.75 C177.93281032 278.91900422 175.49090098 276.20616402 173 273.5 C168.90648909 269.05272888 165.07557501 264.45282537 161.28125 259.75 C158.13805742 255.96094593 154.79841405 252.36730648 151.46484375 248.74609375 C149.07292703 246.08124834 146.80745116 243.35168175 144.5625 240.5625 C141.34056467 236.56775479 137.99340271 232.75450133 134.5 229 C130.25518856 224.43704863 126.24628433 219.74232519 122.36328125 214.86328125 C121.58339844 213.91839844 120.80351563 212.97351563 120 212 C119.49244675 211.27077332 118.98489349 210.54154663 118.46195984 209.79022217 C115.75061987 206.21898862 113.59308396 203.47308872 109.19795227 202.16789246 C105.90562983 201.86542369 102.71143312 201.83050738 99.40625 201.90234375 C98.35276367 201.89174927 97.29927734 201.88115479 96.21386719 201.87023926 C92.30926886 201.84395939 88.40445801 201.89523454 84.5 201.9375 C75.755 201.958125 67.01 201.97875 58 202 C58 234.67 58 267.34 58 301 C38.86 301 19.72 301 0 301 C0 201.67 0 102.34 0 0 Z M58 55 C58 86.02 58 117.04 58 149 C74.67181491 149.17484802 74.67181491 149.17484802 91.34375 149.29296875 C98.15523731 149.32867703 104.96623546 149.37067303 111.77734375 149.45263672 C117.27578042 149.51838118 122.77369171 149.55382127 128.27249146 149.56926346 C130.35824847 149.58025174 132.44398048 149.60170613 134.5295105 149.63438034 C151.97341951 149.89652004 167.57989629 147.53626676 180.91796875 135.23046875 C190.89028233 124.79037074 193.47360093 111.74623933 193.25 97.78515625 C192.64197454 88.57927077 190.12407392 80.66383231 185 73 C184.62746094 72.39671875 184.25492188 71.7934375 183.87109375 71.171875 C178.04263511 63.05953758 165.37491338 57.60865893 156 55 C152.69052268 54.60997558 149.42490164 54.61896895 146.09570312 54.65942383 C144.66017593 54.65876671 144.66017593 54.65876671 143.19564819 54.65809631 C140.05730218 54.66017313 136.91950178 54.68345192 133.78125 54.70703125 C131.59550264 54.71263114 129.4097515 54.71689938 127.22399902 54.71989441 C121.48976118 54.73131219 115.7557537 54.76075305 110.02160645 54.79400635 C103.13158935 54.83018915 96.24149495 54.84388297 89.35140991 54.86136627 C78.90078005 54.89039209 68.450655 54.94790109 58 55 Z " fill="#25282A" transform="translate(831,299)"/>
<path d="M0 0 C15.18 0 30.36 0 46 0 C58.23513871 14.45970938 58.23513871 14.45970938 62.3125 19.75 C66.44987843 25.07816576 70.69604015 30.30562602 75 35.5 C79.69305486 41.16588932 84.29789151 46.88571817 88.81640625 52.69140625 C92.464851 57.36099005 96.22013828 61.93640885 100 66.5 C104.23640268 71.61479287 108.42065504 76.75901732 112.5 82 C117.69002922 88.66357541 123.05553628 95.17467543 128.4375 101.68359375 C135.99214317 110.82314155 143.4516795 120.04108954 150.84375 129.3125 C153.71276857 132.88837821 156.60655122 136.44387927 159.5 140 C163.63461893 145.08154979 167.75122352 150.17584361 171.83203125 155.30078125 C173.61079013 157.51541618 175.40114738 159.71905012 177.19921875 161.91796875 C178.06063477 162.97274414 178.06063477 162.97274414 178.93945312 164.04882812 C180.07304582 165.43573762 181.20835944 166.82124299 182.34570312 168.20507812 C182.87486328 168.85283203 183.40402344 169.50058594 183.94921875 170.16796875 C184.65050903 171.02297974 184.65050903 171.02297974 185.3659668 171.89526367 C187.66875085 174.86139266 189.81739559 177.94435382 192 181 C192.33 121.27 192.66 61.54 193 0 C212.14 0 231.28 0 251 0 C251 99.33 251 198.66 251 301 C238.13 301 225.26 301 212 301 C206.11150262 293.93380315 200.31701826 286.92467064 194.76171875 279.61328125 C191.55553606 275.40878036 188.30983012 271.2352578 185.0625 267.0625 C184.46211914 266.29083496 183.86173828 265.51916992 183.24316406 264.72412109 C179.23588282 259.57764255 175.21162077 254.44482941 171.17724609 249.31958008 C165.68799263 242.34095567 160.24540281 235.32601972 154.79833984 228.31445312 C151.86700639 224.54184368 148.93343657 220.77097422 146 217 C142.46368851 212.45402154 138.92792157 207.90762452 135.39453125 203.359375 C130.11178206 196.56070648 124.82542668 189.76531519 119.5 183 C113.56725981 175.46316591 107.68278082 167.88902129 101.79833984 160.31445312 C98.86700639 156.54184368 95.93343657 152.77097422 93 149 C89.46368851 144.45402154 85.92792157 139.90762452 82.39453125 135.359375 C81.2005738 133.8228755 80.00656391 132.28641676 78.8125 130.75 C77.9477002 129.63709595 77.9477002 129.63709595 77.06542969 128.50170898 C72.85784383 123.09152858 68.6291117 117.69830459 64.37426758 112.32519531 C62.48399399 109.93033798 60.69384666 107.54076999 59 105 C58.67 169.68 58.34 234.36 58 301 C38.86 301 19.72 301 0 301 C0 201.67 0 102.34 0 0 Z " fill="#25282A" transform="translate(445,299)"/>
<path d="M0 0 C1.62215675 0.00333092 1.62215675 0.00333092 3.27708435 0.00672913 C4.49827469 0.00680466 5.71946503 0.00688019 6.97766113 0.00695801 C8.32022644 0.0120654 9.66279134 0.01728141 11.00535583 0.02259827 C12.37156116 0.02446252 13.73776716 0.02588639 15.10397339 0.02688599 C18.70596654 0.03071058 22.30791959 0.04054035 25.90989685 0.05158997 C29.58298703 0.06180536 33.25608368 0.06638388 36.92918396 0.07142639 C44.14079081 0.08216268 51.35236459 0.09923838 58.56394958 0.12025452 C66.27561409 16.88878544 73.95304912 33.66955263 81.40867615 50.55375671 C87.49136963 64.32785806 93.71521967 78.0291722 100.06394958 91.68275452 C100.46470703 92.54470428 100.86546448 93.40665405 101.27836609 94.29472351 C102.88190644 97.74308232 104.48566243 101.19134076 106.08970642 104.63946533 C110.00407779 113.05814818 113.88882777 121.49020952 117.75144958 129.93275452 C118.07712921 130.64446808 118.40280884 131.35618164 118.73835754 132.08946228 C124.03659282 143.67903374 129.21128634 155.32114573 134.36262512 166.97657776 C139.80205945 179.27204079 145.39516522 191.49146349 151.06394958 203.68275452 C151.66508575 204.97567917 151.66508575 204.97567917 152.27836609 206.29472351 C153.88190644 209.74308232 155.48566243 213.19134076 157.08970642 216.63946533 C166.33802908 236.52993766 175.43111409 256.49127304 184.36512756 276.52488708 C185.07329245 278.11282916 185.78223906 279.70042289 186.49201965 281.28764343 C187.47476667 283.48701863 188.45358293 285.68809844 189.43113708 287.88978577 C189.71994247 288.53504211 190.00874786 289.18029846 190.30630493 289.84510803 C191.95758123 293.57928246 193.26480537 297.22282187 194.56394958 301.12025452 C173.44394958 301.12025452 152.32394958 301.12025452 130.56394958 301.12025452 C124.9425846 289.87752455 124.9425846 289.87752455 122.82957458 284.95228577 C122.34738464 283.83337952 121.8651947 282.71447327 121.36839294 281.56166077 C120.85542664 280.3641217 120.34246033 279.16658264 119.81394958 277.93275452 C118.95591885 275.9396734 118.0967008 273.9471068 117.23739624 271.95457458 C116.62891078 270.54359173 116.02073169 269.13247672 115.4128418 267.72123718 C112.14984745 260.1491504 108.85344397 252.59171676 105.55528259 245.03489685 C103.75393226 240.90747179 101.95377537 236.77952645 100.15379333 232.65150452 C99.59886703 231.37885994 99.59886703 231.37885994 99.0327301 230.08050537 C94.53526227 219.76384639 90.04990686 209.44192233 85.56394958 199.12025452 C79.40522449 184.95011638 73.24024343 170.78274383 67.06394958 156.62025452 C61.15969862 143.08011589 55.26015499 129.53793475 49.36790466 115.99256897 C48.51768145 114.03821764 47.66726744 112.0839493 46.81663513 110.129776 C45.61724907 107.37424735 44.41853953 104.61842576 43.22019958 101.86244202 C42.64562012 100.541586 42.64562012 100.541586 42.05943298 99.19404602 C40.0249847 94.51000122 38.00595825 89.8198397 36.00535583 85.12123108 C35.38340332 83.6618663 35.38340332 83.6618663 34.74888611 82.17301941 C33.95314492 80.30341099 33.15952042 78.43289989 32.36827087 76.56138611 C32.01454407 75.73019257 31.66081726 74.89899902 31.29637146 74.0426178 C30.98502258 73.30729828 30.67367371 72.57197876 30.35289001 71.81437683 C29.68468765 70.12682763 29.68468765 70.12682763 28.56394958 69.12025452 C18.76542894 90.42652328 9.11653872 111.7930847 -0.38122559 133.23500061 C-4.19084282 141.83121321 -8.03129294 150.41359339 -11.87355042 158.99525452 C-12.58570928 160.58615591 -13.29786749 162.1770576 -14.01002502 163.76795959 C-15.43815911 166.9580585 -16.86650135 170.14806413 -18.29493713 173.33802795 C-21.49035844 180.47443853 -24.68289759 187.61213845 -27.87565613 194.7497406 C-29.28726249 197.90538992 -30.69902228 201.06097059 -32.11077881 204.21655273 C-34.98282793 210.63622045 -37.8546504 217.05598946 -40.72607422 223.47593689 C-42.54599227 227.54490921 -44.36600781 231.61383791 -46.18605042 235.68275452 C-46.5401297 236.47435974 -46.89420898 237.26596497 -47.25901794 238.08155823 C-50.87357972 246.16222851 -54.48944697 254.24230631 -58.11183167 262.31947327 C-58.40228363 262.96715164 -58.6927356 263.61483002 -58.99198914 264.28213501 C-60.31951976 267.24215425 -61.64747241 270.20198244 -62.97608948 273.16151428 C-67.15282475 282.47090771 -71.29194569 291.79601888 -75.43605042 301.12025452 C-95.56605042 301.12025452 -115.69605042 301.12025452 -136.43605042 301.12025452 C-135.61092194 296.16948366 -134.49456931 292.56081581 -132.40089417 288.14369202 C-132.09105591 287.47406937 -131.78121765 286.80444672 -131.46199036 286.11453247 C-130.79092657 284.6657804 -130.11666905 283.21850427 -129.43955994 281.77256775 C-127.59488096 277.83178507 -125.77499653 273.87954598 -123.95167542 269.92884827 C-123.57403549 269.11221207 -123.19639557 268.29557587 -122.80731201 267.45419312 C-118.99320343 259.19328751 -115.300996 250.88016893 -111.62355042 242.55775452 C-105.79401474 229.38151355 -99.88723861 216.24198112 -93.93605042 203.12025452 C-88.05092999 190.14283596 -82.20632363 177.14915352 -76.43605042 164.12025452 C-70.2675813 150.19225524 -64.008815 136.30676783 -57.7177887 122.43373108 C-51.91218326 109.62827754 -46.16474756 96.79877366 -40.47184753 83.94285583 C-34.52011986 70.50677562 -28.47070828 57.116047 -22.39900208 43.73381042 C-17.00546944 31.84453164 -11.6603432 19.93820802 -6.46803284 7.95936584 C-6.07333801 7.05210754 -5.67864319 6.14484924 -5.27198792 5.21009827 C-4.93731506 4.43529114 -4.60264221 3.66048401 -4.25782776 2.86219788 C-3.03828763 0.27710614 -2.96768594 0.14649846 0 0 Z " fill="#25282A" transform="translate(1662.436050415039,298.87974548339844)"/>
<path d="M0 0 C19.47 0 38.94 0 59 0 C59 81.18 59 162.36 59 246 C109.16 246 159.32 246 211 246 C211 264.15 211 282.3 211 301 C141.37 301 71.74 301 0 301 C0 201.67 0 102.34 0 0 Z " fill="#25282A" transform="translate(1970,299)"/>
<path d="M0 0 C19.8 0 39.6 0 60 0 C60 99.33 60 198.66 60 301 C40.2 301 20.4 301 0 301 C0 201.67 0 102.34 0 0 Z " fill="#25282A" transform="translate(250,299)"/>
<path d="M0 0 C74.58 0 149.16 0 226 0 C226 18.81 226 37.62 226 57 C151.42 57 76.84 57 0 57 C0 38.19 0 19.38 0 0 Z " fill="#25282A" transform="translate(1203,543)"/>
<path d="M0 0 C74.58 0 149.16 0 226 0 C226 18.81 226 37.62 226 57 C151.42 57 76.84 57 0 57 C0 38.19 0 19.38 0 0 Z " fill="#25282A" transform="translate(1203,299)"/>
<path d="M0 0 C58.74 0 117.48 0 178 0 C178 18.15 178 36.3 178 55 C119.26 55 60.52 55 0 55 C0 36.85 0 18.7 0 0 Z " fill="#25282A" transform="translate(1203,423)"/>
</svg>
