<?xml version="1.0" encoding="UTF-8"?>
<svg version="1.1" xmlns="http://www.w3.org/2000/svg" width="300" height="300">
<path d="M0 0 C99 0 198 0 300 0 C300 99 300 198 300 300 C201 300 102 300 0 300 C0 201 0 102 0 0 Z " fill="#FFFFFF" transform="translate(0,0)"/>
<path d="M0 0 C59.4 0 118.8 0 180 0 C180 59.4 180 118.8 180 180 C120.6 180 61.2 180 0 180 C0 120.6 0 61.2 0 0 Z " fill="#010101" transform="translate(60,60)"/>
<path d="M0 0 C40.59 0 81.18 0 123 0 C123 21.78 123 43.56 123 66 C82.41 66 41.82 66 0 66 C0 44.22 0 22.44 0 0 Z " fill="#F6F6F6" transform="translate(88,117)"/>
<path d="M0 0 C22 0 22 0 28 4 C30.7729519 6.7729519 30.33191346 8.57263731 30.375 12.4375 C30.40335938 13.59121094 30.43171875 14.74492187 30.4609375 15.93359375 C30 19 30 19 27.9765625 20.91015625 C27.32429688 21.26980469 26.67203125 21.62945312 26 22 C26.99 22.66 27.98 23.32 29 24 C30.81665348 29.44996043 30.6262589 34.97386827 28.9375 40.4375 C27 43 27 43 20 46 C13.4 46 6.8 46 0 46 C0 30.82 0 15.64 0 0 Z " fill="#111111" transform="translate(171,127)"/>
<path d="M0 0 C3.3 0 6.6 0 10 0 C10 15.18 10 30.36 10 46 C6.7 46 3.4 46 0 46 C-0.495 36.595 -0.495 36.595 -1 27 C-1.61875 28.546875 -2.2375 30.09375 -2.875 31.6875 C-3.58333333 33.45833333 -4.29166667 35.22916667 -5 37 C-5.33257812 37.91394531 -5.66515625 38.82789063 -6.0078125 39.76953125 C-7 42 -7 42 -9 43 C-11.31 36.73 -13.62 30.46 -16 24 C-16.33 30.93 -16.66 37.86 -17 45 C-19.97 45 -22.94 45 -26 45 C-26 30.48 -26 15.96 -26 1 C-22.7 1 -19.4 1 -16 1 C-13.08883742 7.25957488 -10.33015139 13.50010403 -8 20 C-5.65460688 14.29724212 -3.46419037 8.59845988 -1.61328125 2.71484375 C-1 1 -1 1 0 0 Z " fill="#090909" transform="translate(156,127)"/>
<path d="M0 0 C3 2.1875 3 2.1875 5 5 C5.3125 7.8125 5.3125 7.8125 5 10 C7.97 10 10.94 10 14 10 C14 12.31 14 14.62 14 17 C5.75 17 -2.5 17 -11 17 C-11.36993875 3.55889208 -11.36993875 3.55889208 -9.73046875 1.08203125 C-6.66842796 -0.83260825 -3.41741931 -0.7114083 0 0 Z " fill="#1B1B1B" transform="translate(110,147)"/>
<path d="M0 0 C1.1446875 0.3403125 1.1446875 0.3403125 2.3125 0.6875 C2.3125 2.3375 2.3125 3.9875 2.3125 5.6875 C1.3225 6.1825 1.3225 6.1825 0.3125 6.6875 C0.3125 7.6775 0.3125 8.6675 0.3125 9.6875 C4.6025 9.6875 8.8925 9.6875 13.3125 9.6875 C13.3125 8.3675 13.3125 7.0475 13.3125 5.6875 C12.3225 5.3575 11.3325 5.0275 10.3125 4.6875 C10.3125 5.6775 10.3125 6.6675 10.3125 7.6875 C8.9925 7.6875 7.6725 7.6875 6.3125 7.6875 C6.3125 5.0475 6.3125 2.4075 6.3125 -0.3125 C7.9151782 -0.42074843 9.51995748 -0.49820645 11.125 -0.5625 C12.01832031 -0.60890625 12.91164063 -0.6553125 13.83203125 -0.703125 C16.3125 -0.3125 16.3125 -0.3125 18.10546875 1.45703125 C19.93680145 4.84114443 20.02944052 7.9930616 19.3125 11.6875 C17.6875 14.6875 17.6875 14.6875 14.3125 16.6875 C7.4229714 17.54252503 1.068221 18.00429075 -4.6875 13.6875 C-5.85093227 11.36063547 -5.88645988 9.84028587 -5.9375 7.25 C-5.97617188 6.07630859 -5.97617188 6.07630859 -6.015625 4.87890625 C-5.6875 2.6875 -5.6875 2.6875 -4.33984375 0.8828125 C-2.6875 -0.3125 -2.6875 -0.3125 0 0 Z " fill="#121212" transform="translate(104.6875,128.3125)"/>
<path d="M0 0 C8.58 0 17.16 0 26 0 C26 2.31 26 4.62 26 7 C17.42 7 8.84 7 0 7 C0 4.69 0 2.38 0 0 Z " fill="#282828" transform="translate(98,166)"/>
<path d="M0 0 C3.375 -0.125 3.375 -0.125 7 0 C9 2 9 2 9.25 5.5 C9 9 9 9 7 11 C3.375 11.125 3.375 11.125 0 11 C0 7.37 0 3.74 0 0 Z " fill="#E2E2E2" transform="translate(182,153)"/>
<path d="M0 0 C2.33294775 -0.04241723 4.66702567 -0.04092937 7 0 C8 1 8 1 8.125 4.5 C8 8 8 8 7 9 C4.66702567 9.04092937 2.33294775 9.04241723 0 9 C0 6.03 0 3.06 0 0 Z " fill="#E3E3E3" transform="translate(182,136)"/>
<path d="M0 0 C2.64 0 5.28 0 8 0 C8 0.33 8 0.66 8 1 C5.69 1 3.38 1 1 1 C1 3.64 1 6.28 1 9 C2.32 9 3.64 9 5 9 C5 8.01 5 7.02 5 6 C6.32 6.33 7.64 6.66 9 7 C8.67 8.65 8.34 10.3 8 12 C3.71 12 -0.58 12 -5 12 C-5 11.67 -5 11.34 -5 11 C-3.35 10.67 -1.7 10.34 0 10 C0 6.7 0 3.4 0 0 Z " fill="#AAAAAA" transform="translate(110,127)"/>
<path d="M0 0 C0.33 0 0.66 0 1 0 C1 2.97 1 5.94 1 9 C2.65 9 4.3 9 6 9 C6 9.33 6 9.66 6 10 C2.37 10 -1.26 10 -5 10 C-4.67 8.68 -4.34 7.36 -4 6 C-3.34 6 -2.68 6 -2 6 C-2 5.01 -2 4.02 -2 3 C-1.34 3 -0.68 3 0 3 C0 2.01 0 1.02 0 0 Z " fill="#EDEDED" transform="translate(109,128)"/>
<path d="M0 0 C1.65 0 3.3 0 5 0 C5.33 1.65 5.66 3.3 6 5 C4.02 5 2.04 5 0 5 C0 3.35 0 1.7 0 0 Z " fill="#C3C3C3" transform="translate(104,153)"/>
</svg>
