<?xml version="1.0" encoding="UTF-8"?>
<svg version="1.1" xmlns="http://www.w3.org/2000/svg" width="613" height="216">
<path d="M0 0 C7.04402067 5.41502067 13.12653933 11.791001 19.32421875 18.1328125 C19.65421875 7.2428125 19.98421875 -3.6471875 20.32421875 -14.8671875 C71.2359016 -18.38948641 71.2359016 -18.38948641 80.36962891 -12.86767578 C85.92879537 -7.8744296 88.70113633 -1.73933628 91.19677734 5.20556641 C92.81934861 9.41834889 95.25631312 12.7354083 97.94921875 16.3203125 C98.82211133 17.58070337 99.68926949 18.84508407 100.55078125 20.11328125 C104.3687994 25.66181821 108.24520019 31.16959408 112.11352539 36.68310547 C116.34035183 42.7127635 120.53056951 48.76631518 124.68554688 54.84570312 C127.51416429 58.9791488 130.40213935 63.06481962 133.32421875 67.1328125 C136.8236012 63.89829156 139.43661902 60.25668157 142.07421875 56.3203125 C143.0539281 54.87708837 144.03444554 53.43441258 145.015625 51.9921875 C145.54559082 51.21166016 146.07555664 50.43113281 146.62158203 49.62695312 C149.72094264 45.08679426 152.86863976 40.58026272 156.01171875 36.0703125 C157.38412406 34.09896493 158.75651977 32.12761068 160.12890625 30.15625 C162.22808069 27.14217638 164.32741949 24.12821729 166.42675781 21.11425781 C168.49712788 18.1415426 170.56693164 15.16843362 172.63671875 12.1953125 C173.24539795 11.32189209 173.85407715 10.44847168 174.48120117 9.54858398 C175.08552979 8.68048096 175.6898584 7.81237793 176.3125 6.91796875 C177.28956909 5.58983154 177.28956909 5.58983154 178.28637695 4.23486328 C179.90975796 1.76371447 181.05497783 -0.41133444 182.24291992 -3.08251953 C184.54635697 -7.81355537 186.84541336 -11.92037061 191.32421875 -14.8671875 C200.54294308 -17.51900928 210.55638587 -16.3650529 220.01171875 -15.8671875 C222.65929059 -15.78685498 225.307096 -15.7138642 227.95507812 -15.6484375 C234.42192641 -15.48641186 240.85621579 -15.17386923 247.32421875 -14.8671875 C247.65421875 -3.9771875 247.98421875 6.9128125 248.32421875 18.1328125 C250.48984375 15.8640625 252.65546875 13.5953125 254.88671875 11.2578125 C274.13310401 -8.26971162 299.95231755 -19.70904315 327.48632812 -20.16015625 C351.83760194 -20.29506635 374.31681626 -15.57181502 394.32421875 -0.8671875 C395.55978516 0.03773437 395.55978516 0.03773437 396.8203125 0.9609375 C413.88706145 14.06053263 430.8292848 33.15178461 434.32421875 55.1328125 C425.97034187 55.29537904 417.61713135 55.41956795 409.26206112 55.4954977 C405.38190068 55.53195068 401.50282637 55.58134888 397.62329102 55.66088867 C393.875483 55.73724226 390.12871594 55.77886244 386.3801899 55.7969532 C384.95398133 55.8098357 383.52782647 55.83499427 382.10206413 55.8729229 C370.91864109 56.158454 370.91864109 56.158454 366.97610474 53.62234497 C365.12329102 51.75805664 365.12329102 51.75805664 363.69166565 49.90248108 C357.69961966 42.14793097 345.50416869 39.42471344 336.32421875 38.1328125 C322.70366201 36.81387591 309.24917146 41.7286903 298.71875 50.23828125 C289.1034532 59.33818525 283.11830008 70.93993245 282.0859375 84.19140625 C281.74758389 99.59539955 286.09443033 112.42379524 296.51171875 123.8828125 C307.00793492 133.67300516 320.18068234 138.06046705 334.32421875 138.1328125 C346.68722198 137.6611993 358.98533416 131.90842088 367.76171875 123.2578125 C369.61427696 121.24003562 371.1023844 119.5764812 372.32421875 117.1328125 C358.46421875 116.8028125 344.60421875 116.4728125 330.32421875 116.1328125 C330.32421875 102.2728125 330.32421875 88.4128125 330.32421875 74.1328125 C366.29421875 74.1328125 402.26421875 74.1328125 439.32421875 74.1328125 C440.77933466 100.32489881 438.04265595 120.36718882 425.32421875 143.1328125 C424.78023437 144.11894531 424.23625 145.10507813 423.67578125 146.12109375 C409.09057071 170.70250956 383.57511797 187.07507638 356.32421875 194.1328125 C328.37217658 201.00509803 297.82687422 194.96673642 273.4609375 180.22265625 C263.97245711 173.90094142 256.43154471 166.24013846 248.32421875 158.1328125 C247.99421875 169.0228125 247.66421875 179.9128125 247.32421875 191.1328125 C228.51421875 191.1328125 209.70421875 191.1328125 190.32421875 191.1328125 C189.99421875 154.5028125 189.66421875 117.8728125 189.32421875 80.1328125 C181.94605454 90.34873217 174.59719291 100.55980591 167.34765625 110.86328125 C164.25102454 115.25034407 161.10257141 119.59892794 157.94921875 123.9453125 C150.25418493 134.55773933 142.59626456 145.22474378 135.32421875 156.1328125 C134.33421875 156.1328125 133.34421875 156.1328125 132.32421875 156.1328125 C130.90478516 154.58251953 130.90478516 154.58251953 129.42578125 152.390625 C128.59312744 151.17596558 128.59312744 151.17596558 127.74365234 149.93676758 C127.15148926 149.0527124 126.55932617 148.16865723 125.94921875 147.2578125 C124.68485101 145.40929567 123.41919908 143.56165663 122.15234375 141.71484375 C121.51232422 140.77721191 120.87230469 139.83958008 120.21289062 138.87353516 C117.44002807 134.84973021 114.57574776 130.89534937 111.69921875 126.9453125 C106.0141964 119.1102681 100.41614689 111.21698612 94.84765625 103.29882812 C92.15516903 99.4706636 89.45872933 95.64529093 86.76171875 91.8203125 C86.2608374 91.10866943 85.75995605 90.39702637 85.24389648 89.66381836 C84.53922241 88.66427124 84.53922241 88.66427124 83.8203125 87.64453125 C83.40966553 87.06147217 82.99901855 86.47841309 82.57592773 85.87768555 C81.18726845 83.94190479 79.75363255 82.03869757 78.32421875 80.1328125 C77.99421875 116.7628125 77.66421875 153.3928125 77.32421875 191.1328125 C58.51421875 191.1328125 39.70421875 191.1328125 20.32421875 191.1328125 C19.99421875 180.2428125 19.66421875 169.3528125 19.32421875 158.1328125 C17.28234375 160.2571875 15.24046875 162.3815625 13.13671875 164.5703125 C-7.63696578 185.56734388 -34.56395133 196.16401868 -63.92578125 196.4453125 C-91.90783113 196.31448147 -116.79973737 186.90481416 -137.67578125 168.1328125 C-138.44277344 167.44832031 -139.20976562 166.76382813 -140 166.05859375 C-154.87747535 152.01197217 -164.11404296 133.59889651 -169.67578125 114.1328125 C-169.91039062 113.32199219 -170.145 112.51117188 -170.38671875 111.67578125 C-176.91889971 84.64769918 -171.10896134 54.57237835 -156.88330078 31.04199219 C-140.67694906 5.41852465 -115.69193354 -11.72059899 -86.20556641 -18.42919922 C-55.89782533 -24.57851646 -25.16760652 -17.56221301 0 0 Z M-102.51953125 54.5234375 C-112.44123267 66.53013415 -115.77508317 79.74258556 -114.67578125 95.1328125 C-112.33178866 108.29306003 -106.14852184 119.6939602 -95.67578125 128.1328125 C-82.86017685 136.94243268 -69.72005403 140.71310796 -54.23828125 138.1328125 C-40.40312296 134.97817007 -29.79330288 127.7829187 -21.609375 116.2109375 C-13.97484434 103.90643297 -11.61125737 90.7703593 -14.3671875 76.5703125 C-18.28321889 62.67577435 -26.7575863 50.44415594 -39.47265625 43.15625 C-61.64565266 32.85602826 -85.53457815 36.32527347 -102.51953125 54.5234375 Z " fill="#273869" transform="translate(172.67578125,19.8671875)"/>
</svg>
